HIERARCHY
ROOT Hips
{
	OFFSET -0.179506 -22.333345 2.821913
	CHANNELS 6 Xposition Yposition Zposition Zrotation Yrotation Xrotation 
	JOINT LeftUpLeg
	{
		OFFSET 6.951974 -9.140623 -0.681533
		CHANNELS 3 Zrotation Yrotation Xrotation
		JOINT LeftLeg
		{
			OFFSET 3.427654 -37.519855 -0.449580
			CHANNELS 3 Zrotation Yrotation Xrotation
			JOINT LeftFoot
			{
				OFFSET -1.359570 -39.796059 -4.369333
				CHANNELS 3 Zrotation Yrotation Xrotation
				JOINT LeftToe
				{
					OFFSET 2.635814 -5.579078 11.928840
					CHANNELS 3 Zrotation Yrotation Xrotation
					End Site
					{
						OFFSET 0.000000 0.000000 0.000000
					}
				}
			}
		}
	}
	JOINT RightUpLeg
	{
		OFFSET -6.767048 -9.052170 -0.431982
		CHANNELS 3 Zrotation Yrotation Xrotation
		JOINT RightLeg
		{
			OFFSET -3.829005 -38.256897 -0.885003
			CHANNELS 3 Zrotation Yrotation Xrotation
			JOINT RightFoot
			{
				OFFSET 1.577377 -39.841461 -4.231180
				CHANNELS 3 Zrotation Yrotation Xrotation
				JOINT RightToe
				{
					OFFSET -2.537174 -4.814398 12.334795
					CHANNELS 3 Zrotation Yrotation Xrotation
					End Site
					{
						OFFSET 0.000000 0.000000 0.000000
					}
				}
			}
		}
	}
	JOINT Spine
	{
		OFFSET -0.253288 10.896323 -2.669631
		CHANNELS 3 Zrotation Yrotation Xrotation
		JOINT Spine1
		{
			OFFSET 0.548704 13.518043 0.109247
			CHANNELS 3 Zrotation Yrotation Xrotation
			JOINT Spine2
			{
				OFFSET 0.145701 5.292222 2.542457
				CHANNELS 3 Zrotation Yrotation Xrotation
				JOINT Neck
				{
					OFFSET -0.277840 21.387037 -4.285703
					CHANNELS 3 Zrotation Yrotation Xrotation
					JOINT Head
					{
						OFFSET 0.515184 6.496960 5.134897
						CHANNELS 3 Zrotation Yrotation Xrotation
						End Site
						{
							OFFSET 0.000000 0.000000 0.000000
						}
					}
				}
				JOINT LeftShoulder
				{
					OFFSET 7.884473 12.174932 -3.408961
					CHANNELS 3 Zrotation Yrotation Xrotation
					JOINT LeftArm
					{
						OFFSET 9.097692 3.046888 -0.886815
						CHANNELS 3 Zrotation Yrotation Xrotation
						JOINT LeftForeArm
						{
							OFFSET 25.961220 -1.277207 -2.745643
							CHANNELS 3 Zrotation Yrotation Xrotation
							JOINT LeftHand
							{
								OFFSET 24.923361 0.898606 -0.117091
								CHANNELS 3 Zrotation Yrotation Xrotation
								End Site
								{
									OFFSET 0.000000 0.000000 0.000000
								}
							}
						}
					}
				}
				JOINT RightShoulder
				{
					OFFSET -8.175920 11.883285 -3.861528
					CHANNELS 3 Zrotation Yrotation Xrotation
					JOINT RightArm
					{
						OFFSET -9.601238 3.255117 -0.914307
						CHANNELS 3 Zrotation Yrotation Xrotation
						JOINT RightForeArm
						{
							OFFSET -25.374195 -1.332924 -2.140099
							CHANNELS 3 Zrotation Yrotation Xrotation
							JOINT RightHand
							{
								OFFSET -25.529810 0.777228 -0.555919
								CHANNELS 3 Zrotation Yrotation Xrotation
								End Site
								{
									OFFSET 0.000000 0.000000 0.000000
								}
							}
						}
					}
				}
			}
		}
	}
}
MOTION
Frames: 12
Frame Time: 0.033333
-28.760756 -352.232635 88.555603 -174.108300 -3.040596 92.121287 -1.230265 -5.809288 -8.110542 -12.561746 2.640402 71.379001 4.355775 26.847634 -55.349552 nan nan nan -2.210623 1.699516 -24.789976 6.146724 -6.442242 40.378150 -1.854479 -10.436997 -23.403605 nan nan nan -2.102481 -0.749586 13.012679 6.094842 -2.551110 9.228644 1.099135 -3.624349 0.081530 -5.277077 1.480176 -5.808451 -0.326802 3.507465 -14.577039 -20.845076 8.634659 5.876354 -61.131574 2.034512 18.560828 -7.567708 -80.378887 30.492376 13.531455 -27.613564 -15.033716 23.926272 -10.041317 -0.017403 53.639186 -17.826989 6.099491 1.684682 82.185143 18.791922 -15.043264 18.361699 -17.809903 
-28.719982 -349.822571 88.381699 -174.638536 -3.269698 91.937025 -1.144823 -6.280388 -11.445365 -12.519771 4.206205 73.496065 4.816360 26.883352 -55.305473 nan nan nan -1.973114 1.492768 -23.023822 6.204348 -5.891495 40.837535 -1.888220 -10.663070 -24.808162 nan nan nan -1.963739 0.131761 13.590988 5.759199 -2.537774 9.099777 1.052937 -3.286176 0.059058 -4.920294 1.271437 -6.547211 -0.526450 3.133701 -14.071953 -21.277233 8.502699 5.850667 -60.797603 2.457212 18.360912 -4.418156 -78.343524 27.954584 12.527858 -27.583948 -14.174389 24.339308 -9.196762 0.039023 54.294697 -16.939856 5.878800 -8.325500 82.763553 9.212321 -15.234027 18.049400 -17.576716 
-28.729977 -347.251465 88.291115 -174.950448 -3.281679 91.574526 -0.702669 -6.155685 -15.112022 -12.639991 6.452850 76.443141 4.763929 24.645709 -51.148398 nan nan nan -1.583399 1.043384 -20.595457 6.143310 -5.568533 40.635855 -2.634246 -10.766886 -26.034517 nan nan nan -1.491003 1.015486 14.008770 5.391724 -2.605372 9.270759 1.022346 -2.995918 -0.130553 -4.564723 1.081320 -7.230149 -0.978028 2.489912 -12.952724 -21.635906 8.119901 6.186002 -60.787266 2.929149 17.798666 -1.895476 -76.157173 25.757640 12.050427 -28.094455 -13.260165 24.909590 -8.430270 0.233943 54.422708 -15.839984 5.052984 -14.734479 83.598193 2.579311 -15.099087 18.256403 -15.553259 
-28.707754 -344.760071 88.237633 -175.891380 -3.394430 91.366997 -0.405557 -6.385407 -18.124618 -11.886734 7.999186 77.404498 5.171321 24.933671 -50.097951 nan nan nan -1.248423 1.111481 -18.594468 6.316627 -4.480237 40.713510 -2.613267 -10.939483 -26.994006 nan nan nan -1.344543 2.091402 14.397076 5.068552 -2.421981 9.637127 0.947050 -2.640107 -0.503016 -4.075275 0.968875 -8.038064 -1.226781 2.052567 -12.275832 -21.753068 8.054018 6.133535 -60.760302 3.558711 17.599389 -0.692765 -74.243733 25.214309 11.661031 -27.467345 -12.188605 24.949420 -7.896140 0.285979 55.083823 -15.055067 5.096289 -21.814884 83.742034 -4.689163 -15.871968 17.566741 -15.867439 
-28.698818 -342.264740 88.285851 -176.784208 -3.614819 91.268690 -0.166126 -6.728699 -21.188145 -11.339857 9.395687 77.879733 5.672193 25.226169 -49.227578 nan nan nan -1.107125 1.055725 -16.265442 6.473617 -3.269070 40.186303 -2.472603 -10.817108 -28.051308 nan nan nan -1.309956 3.242847 14.686594 4.770050 -2.361751 9.910472 0.867169 -2.320915 -0.823944 -3.703918 0.719720 -8.754408 -1.353981 1.908298 -11.724305 -21.843374 8.109647 6.229891 -60.687853 4.045275 17.375145 -0.427959 -72.595626 25.496947 10.932071 -26.166658 -11.414760 25.064097 -7.600323 0.401151 55.642520 -14.046498 4.979646 -29.178319 84.321977 -11.950558 -15.921378 16.785127 -15.354802 
-28.324959 -339.655334 88.328186 -178.643997 -3.457188 91.502407 1.123793 -6.190682 -24.222380 -10.643808 10.995994 77.844257 6.026181 25.141892 -46.683476 nan nan nan -0.164010 1.746892 -14.403835 6.595734 -1.279053 39.753844 -2.410103 -10.877640 -28.613656 nan nan nan -1.679236 4.576118 14.825780 4.501278 -1.702443 9.722871 0.916895 -1.775021 -1.036993 -3.111073 0.929529 -9.416261 -1.479708 1.444025 -10.992555 -21.749604 8.532147 6.326120 -60.292586 5.246825 17.061741 -1.133572 -71.803448 26.561366 13.479223 -25.169242 -12.761133 25.355049 -7.705060 0.697939 56.250975 -13.106067 4.677820 -33.331812 85.376800 -15.866521 -18.238079 15.717207 -14.912848 
-28.324093 -337.726440 88.533348 179.868916 -3.737146 92.636485 1.770506 -6.396179 -29.012352 -10.127730 12.685635 77.524394 6.558678 25.014174 -45.977895 nan nan nan -0.513169 2.207385 -14.348646 6.746122 -0.519213 40.019980 -1.990458 -10.343666 -28.613553 nan nan nan -1.618248 5.403539 15.250760 3.658090 -1.306258 8.266371 0.539788 -1.260515 -0.825694 -2.449482 1.021531 -10.127298 -1.324571 1.030662 -10.410087 -21.720337 8.891834 6.145638 -59.658986 6.892154 16.898284 0.418432 -71.657157 25.725673 13.353814 -25.767053 -13.822804 25.044840 -7.269350 0.750811 57.517593 -12.164655 4.825257 -41.739768 85.636800 -23.478949 -18.899701 15.493366 -15.554646 
-28.141829 -334.942474 88.808784 178.749496 -4.036784 92.734638 2.378461 -6.491343 -31.456811 -9.051713 14.075256 76.440211 7.037240 23.030842 -42.090576 nan nan nan -0.724608 2.208303 -11.312818 6.114384 -0.429834 38.168024 -2.424094 -9.118531 -28.565208 nan nan nan -1.469415 6.372864 14.155296 2.352580 -1.093050 10.739896 0.149545 -0.481995 -2.560289 -0.682535 2.659646 -8.964987 -1.495591 -1.579007 -11.190579 -21.253710 7.445978 6.118321 -59.468919 9.539608 16.470488 5.581564 -71.315630 18.911028 9.057514 -27.230047 -11.500691 22.871456 -2.543869 1.934817 60.450052 -13.545231 5.384725 -49.514929 82.673863 -35.600572 -15.618949 17.451231 -17.185150 
-27.919109 -332.166382 89.123474 178.102459 -4.193634 92.388512 2.854889 -6.512984 -33.332863 -8.419800 14.730972 74.941066 7.364996 22.495161 -40.259900 nan nan nan -0.860317 1.721693 -7.520091 6.032992 0.240029 35.813892 -2.092866 -8.340050 -28.326108 nan nan nan -1.591435 7.411647 14.019846 2.000175 -1.288947 11.447491 0.006141 -0.212580 -2.940246 -0.143012 2.939264 -8.473245 -1.364576 -2.414352 -11.398152 -21.426949 7.749434 6.178170 -58.533035 10.860354 16.064047 5.397810 -71.509747 18.337033 7.035981 -27.449967 -11.054549 23.126974 -1.719738 1.977331 60.952624 -13.555474 5.404382 -58.793875 82.640518 -45.790967 -14.294712 17.452260 -16.422389 
-27.703173 -329.333466 89.497002 177.774947 -4.235263 91.966819 3.273711 -6.605862 -34.815034 -8.070765 14.987499 72.956520 7.659912 22.153776 -38.654383 nan nan nan -0.952108 1.144966 -3.374711 6.144767 1.161633 32.703803 -1.581657 -7.454183 -27.396059 nan nan nan -1.733920 8.319396 14.115668 1.897113 -1.557600 11.461419 -0.120722 -0.032970 -2.876708 0.275674 2.747758 -8.015491 -1.056922 -2.836144 -11.751415 -21.240297 8.618766 6.365103 -57.730832 11.841580 15.849950 2.656814 -71.923933 20.657658 7.758446 -27.785213 -12.579728 23.202683 -2.109336 1.802772 61.237935 -13.055674 5.368614 -64.544432 83.516199 -51.561711 -14.708869 17.108050 -15.957673 
-27.541485 -326.461639 89.855843 177.320500 -4.179334 92.271321 4.355428 -7.621264 -36.336239 -5.099054 16.984842 70.243825 6.194471 17.297840 -13.206091 nan nan nan -0.964622 1.495859 -0.048849 5.759678 1.381114 30.113663 -3.402623 -6.753344 -25.713912 nan nan nan -1.641740 9.301407 12.793964 1.231693 -1.572342 12.666079 0.095046 0.163308 -3.767739 0.278830 2.320763 -6.720684 -0.114728 -3.421972 -12.434264 -21.071523 8.554260 6.529868 -56.867738 14.073783 15.562484 0.010577 -72.847969 23.685516 10.602120 -27.526609 -14.834887 23.168048 -2.309919 2.134221 61.590252 -12.952793 5.749428 -75.837455 83.781128 -64.653435 -14.900499 16.876295 -13.750881 
-27.299528 -323.653992 90.310196 177.165625 -4.077223 91.972190 4.802725 -7.612747 -37.496683 -4.879078 17.137850 67.199081 6.528747 16.813700 -12.289247 nan nan nan -0.807842 1.289018 3.547374 5.612284 2.495618 27.722321 -2.462905 -5.798057 -23.984405 nan nan nan -1.840019 10.133447 12.459618 1.294097 -1.713038 13.056050 0.061899 0.329044 -3.767687 0.808401 2.332344 -6.476208 -0.148359 -4.170854 -12.732429 -20.490946 9.088681 6.580446 -56.567759 15.097156 15.430726 -1.897938 -73.410691 25.994770 10.289696 -27.731073 -15.444120 22.935957 -2.377095 1.919268 62.159757 -12.681713 6.021101 -84.583613 83.761189 -72.911616 -14.755038 16.961225 -14.184212 
